<svg xmlns="http://www.w3.org/2000/svg" xmlns:svg="http://www.w3.org/2000/svg" xmlns:xlink="http://www.w3.org/1999/xlink" id="svg2" width="86" height="86" version="1.1"><defs id="defs4"><linearGradient id="linearGradient3789-6"><stop style="stop-color:#9ae4e8;stop-opacity:1" id="stop3791-0" offset="0"/><stop style="stop-color:#60a8c0;stop-opacity:1" id="stop3793-4" offset="1"/></linearGradient><linearGradient id="linearGradient3003" x1="12" x2="86" y1="74" y2="0" gradientTransform="matrix(-1,0,0,-1,86,90)" gradientUnits="userSpaceOnUse" xlink:href="#linearGradient3789-6"/></defs><metadata id="metadata7"/><g id="layer2" transform="translate(0,-4)" style="display:inline"><path style="fill:url(#linearGradient3003);fill-opacity:1;display:inline" id="path13" d="m 0.301,88.277 c 0,0.786 0.637,1.423 1.423,1.423 0,0 40.641,0 41.276,0 C 66.583,89.7 85.7,70.583 85.7,47 85.7,23.418 66.583,4.3 43,4.3 19.417,4.3 0.3,23.418 0.3,47 c 0,0.636 0.001,41.277 0.001,41.277 z"/><g id="g19" transform="matrix(1.0256575,0,0,1.0256575,-6.2310472,-2.2315484)"><path style="fill:#231f20" id="path21" d="M 79.199,46.054 C 68.504,43.137 68.504,43.137 68.504,43.137 c 0,0 -1.223,-7.916 -9.271,-10.92 0,0 0,0 -1.201,-4.913 -2.25,5.167 -2.25,5.167 -2.25,5.167 0,0 0,0 -3.832,-5.5 0.416,5.417 0.416,5.417 0.416,5.417 0,0 -4.377,-4.077 -4.366,-4.512 2.115,6.844 -1.751,14.344 -1.751,14.344 0,0 0,0 -4.718,-3.083 -5.6,-3.302 -19.833,-8.667 -19.833,-8.667 0,0 3.01,6.185 8.521,9.308 -2.253,0.179 -8.854,-0.975 -8.854,-0.975 0,0 5.464,5.972 12.034,7.444 -3.045,0.112 -10.034,1.806 -10.034,1.806 0,0 7.702,3.862 13.102,3.528 -11.352,4.723 -11.018,6.223 2.052,5.041 C 26.962,66.975 16.8,57.527 16.8,57.527 c 0,0 8.148,12.443 23.459,11.445 10.139,-0.301 24.528,-4.787 28.377,-19.578"/><line style="fill:none" id="line23" x1="79.199" x2="68.504" y1="46.054" y2="43.137"/><polygon style="fill:#f4eb1f" id="polygon25" points="64.531 50.721 68.504 43.137 79.199 46.054"/><polygon style="fill:#fff" id="polygon27" points="63.949 39.441 63.121 40.911 59.781 37.97"/></g></g></svg>