<svg xmlns="http://www.w3.org/2000/svg" xmlns:xlink="http://www.w3.org/1999/xlink" width="30" height="30" x="0" y="0" enable-background="new 0 0 30 30" version="1.1" viewBox="0 0 30 30" xml:space="preserve"><g id="DO_NOT_EDIT_-_BOUNDING_BOX"><rect id="BOUNDING_BOX" width="30" height="30" fill="none"/></g><g id="PLACE_YOUR_GRAPHIC_HERE"><path d="M15,1C7.82,1,2,6.82,2,14s5.82,13,13,13s13-5.82,13-13S22.18,1,15,1z M17,23c0,0.551-0.451,1-1,1h-2 c-0.55,0-1-0.449-1-1v-9c0-0.549-0.45-1-1-1h-1c-0.55,0-1-0.449-1-1c0-0.549,0.45-1,1-1h5c0.549,0,1,0.451,1,1V23z M15.001,9 C13.621,9,12.5,7.879,12.5,6.5S13.621,4,15.001,4S17.5,5.121,17.5,6.5S16.381,9,15.001,9z" opacity=".3"/><path d="M15,29C7.28,29,1,22.72,1,15S7.28,1,15,1s14,6.28,14,14S22.72,29,15,29z" opacity=".15"/><path d="M15,2C7.82,2,2,7.82,2,15s5.82,13,13,13s13-5.82,13-13S22.18,2,15,2z M17,24c0,0.551-0.451,1-1,1h-2 c-0.55,0-1-0.449-1-1v-9c0-0.549-0.45-1-1-1h-1c-0.55,0-1-0.449-1-1c0-0.549,0.45-1,1-1h5c0.549,0,1,0.451,1,1V24z M15.001,10 c-1.38,0-2.501-1.121-2.501-2.5S13.621,5,15.001,5S17.5,6.121,17.5,7.5S16.381,10,15.001,10z" opacity=".15"/><path fill="#FFF" d="M15,2C7.82,2,2,7.82,2,15s5.82,13,13,13s13-5.82,13-13S22.18,2,15,2z M17,24c0,0.551-0.451,1-1,1h-2 c-0.55,0-1-0.449-1-1v-9c0-0.549-0.45-1-1-1h-1c-0.55,0-1-0.449-1-1c0-0.549,0.45-1,1-1h5c0.549,0,1,0.451,1,1V24z M15.001,10 c-1.38,0-2.501-1.121-2.501-2.5S13.621,5,15.001,5S17.5,6.121,17.5,7.5S16.381,10,15.001,10z"/></g></svg>