<svg xmlns="http://www.w3.org/2000/svg" xmlns:svg="http://www.w3.org/2000/svg" id="svg2" width="30" height="30" x="0" y="0" enable-background="new 0 0 30 30" version="1.1" viewBox="0 0 30 30" xml:space="preserve"><metadata id="metadata23"/><g id="DO_NOT_EDIT_-_BOUNDING_BOX"><rect id="BOUNDING_BOX" width="30" height="30" fill="none"/></g><g id="PLACE_YOUR_GRAPHIC_HERE"><g id="g7"><path id="path9" d="M24,10h-1V7c0-3.3-2.701-6-6-6h-4C9.699,1,7,3.7,7,7v3H6c-1.1,0-2,0.9-2,2v13c0,1.1,0.9,2,2,2h18 c1.1,0,2-0.9,2-2V12C26,10.9,25.1,10,24,10z M16,19.289V23h-2v-3.711c-0.881-0.387-1.5-1.266-1.5-2.289c0-1.381,1.121-2.5,2.5-2.5 s2.5,1.119,2.5,2.5C17.5,18.023,16.881,18.902,16,19.289z M20,10H10V7c0-1.654,1.346-3,3-3h4c1.654,0,3,1.346,3,3V10z" opacity=".3"/><path id="path11" d="M6,29c-1.654,0-3-1.346-3-3V13c0-1.654,1.346-3,3-3V8c0-3.86,3.14-7,7-7h4c3.859,0,7,3.14,7,7v2 c1.654,0,3,1.346,3,3v13c0,1.654-1.346,3-3,3H6z M19,10V8c0-1.103-0.897-2-2-2h-4c-1.103,0-2,0.897-2,2v2H19z" opacity=".15"/><path id="path13" d="M24,11h-1V8c0-3.3-2.701-6-6-6h-4C9.699,2,7,4.7,7,8v3H6c-1.1,0-2,0.9-2,2v13c0,1.1,0.9,2,2,2h18 c1.1,0,2-0.9,2-2V13C26,11.9,25.1,11,24,11z M16,20.289V24h-2v-3.711c-0.881-0.387-1.5-1.266-1.5-2.289c0-1.381,1.121-2.5,2.5-2.5 s2.5,1.119,2.5,2.5C17.5,19.023,16.881,19.902,16,20.289z M20,11H10V8c0-1.654,1.346-3,3-3h4c1.654,0,3,1.346,3,3V11z" opacity=".15"/><path id="path15" fill="#000" d="M24,11h-1V8c0-3.3-2.701-6-6-6h-4C9.699,2,7,4.7,7,8v3H6c-1.1,0-2,0.9-2,2v13c0,1.1,0.9,2,2,2h18 c1.1,0,2-0.9,2-2V13C26,11.9,25.1,11,24,11z M16,20.289V24h-2v-3.711c-0.881-0.387-1.5-1.266-1.5-2.289c0-1.381,1.121-2.5,2.5-2.5 s2.5,1.119,2.5,2.5C17.5,19.023,16.881,19.902,16,20.289z M20,11H10V8c0-1.654,1.346-3,3-3h4c1.654,0,3,1.346,3,3V11z"/><rect id="rect17" width="30" height="30" fill="none"/></g></g></svg>